<svg xmlns="http://www.w3.org/2000/svg" width="96" height="24" fill="none"><path fill="#4D4D4D" d="M2.353 22.26h20.52V1.74H2.353v20.52Zm16.57-12.235h-4.336V5.69h4.336v4.336ZM6.302 5.69h4.338v8.285h8.283v4.336H6.302V5.69Zm29.933-3.95A10.26 10.26 0 1 0 46.495 12a10.272 10.272 0 0 0-10.26-10.26Zm0 16.571a6.31 6.31 0 1 1 6.31-6.31 6.32 6.32 0 0 1-6.31 6.31ZM83.211 1.74A10.26 10.26 0 1 0 93.47 12 10.272 10.272 0 0 0 83.21 1.74Zm0 16.57A6.311 6.311 0 1 1 89.52 12a6.318 6.318 0 0 1-6.31 6.31ZM59.723 1.74A10.26 10.26 0 1 0 69.983 12a10.272 10.272 0 0 0-10.26-10.26Zm0 16.57a6.311 6.311 0 1 1 5.99-8.284h-5.99v3.948h5.99a6.32 6.32 0 0 1-5.99 4.336Z"/></svg>