<svg xmlns="http://www.w3.org/2000/svg" width="102" height="24" fill="none"><g fill="#4D4D4D" clip-path="url(#a)"><path fill-rule="evenodd" d="M6.609 1.5V24H.6V1.5h6.009Zm3.004 0h12.77c4.148 0 7.51 3.358 7.51 7.5 0 4.142-3.363 7.5-7.51 7.5h-6.76V24h-6.01V1.5Zm6.01 9h6.76a1.501 1.501 0 1 0 0-3h-6.76v3Zm36.804-9v11.625A4.879 4.879 0 0 0 57.309 18a4.879 4.879 0 0 0 4.882-4.875V1.5h6.01v11.625C68.2 19.131 63.323 24 57.308 24s-10.891-4.869-10.891-10.875V1.5h6.009Z" clip-rule="evenodd"/><path fill-rule="evenodd" d="M32.147 12c0-5.799 4.708-10.5 10.515-10.5h1.502v6h-1.502a4.503 4.503 0 0 0-4.506 4.5v.75c0 6.213-5.045 11.25-11.267 11.25h-.751v-6h.75a5.254 5.254 0 0 0 5.259-5.25V12Z" clip-rule="evenodd"/><path d="M102 2.25a2.252 2.252 0 0 1-2.254 2.25 2.251 2.251 0 0 1-2.253-2.25A2.251 2.251 0 0 1 99.746 0 2.252 2.252 0 0 1 102 2.25ZM74.652 24l2.867-11.99 2.132 7.214c1.271 4.302 7.374 4.302 8.645 0l2.131-7.213L93.295 24h6.177L94.964 5.148c-1.072-4.484-7.4-4.65-8.706-.229l-2.284 7.731-2.285-7.73c-1.306-4.421-7.634-4.256-8.706.228L68.474 24h6.178Z"/></g><defs><clipPath id="a"><path fill="#fff" d="M.6 0H102v24H.6z"/></clipPath></defs></svg>