<svg xmlns="http://www.w3.org/2000/svg" width="129" height="24" fill="none"><g fill="#4D4D4D" clip-path="url(#a)"><path d="M31.053 1.02h3.195v17.43h5.259v2.905h-8.454V1.02Zm14.492 20.627c-1.569 0-2.77-.446-3.603-1.337-.833-.89-1.249-2.15-1.249-3.776V5.842c0-1.627.416-2.885 1.25-3.776.832-.891 2.033-1.337 3.602-1.337s2.77.446 3.602 1.337c.833.89 1.25 2.15 1.25 3.776v10.692c0 1.627-.417 2.885-1.25 3.776s-2.033 1.337-3.602 1.337Zm0-2.905c1.104 0 1.656-.669 1.656-2.005V5.639c0-1.336-.552-2.005-1.656-2.005-1.104 0-1.656.669-1.656 2.005v11.098c0 1.336.552 2.005 1.656 2.005Zm11.545 2.905c-1.549 0-2.73-.436-3.544-1.308-.813-.89-1.22-2.16-1.22-3.805V5.842c0-1.646.407-2.905 1.22-3.776.814-.891 1.995-1.337 3.544-1.337 1.55 0 2.731.446 3.545 1.337.813.871 1.22 2.13 1.22 3.776v1.744h-3.021V5.639c0-1.336-.552-2.005-1.656-2.005-1.104 0-1.656.669-1.656 2.005v11.127c0 1.317.552 1.976 1.656 1.976 1.104 0 1.656-.659 1.656-1.976v-3.98h-1.598V9.88h4.619v6.653c0 1.646-.407 2.915-1.22 3.805-.814.872-1.995 1.308-3.544 1.308Zm11.436 0c-1.569 0-2.77-.446-3.602-1.337-.833-.89-1.25-2.15-1.25-3.776V5.842c0-1.627.417-2.885 1.25-3.776.832-.891 2.033-1.337 3.602-1.337s2.77.446 3.603 1.337c.832.89 1.249 2.15 1.249 3.776v10.692c0 1.627-.417 2.885-1.25 3.776-.832.891-2.033 1.337-3.602 1.337Zm0-2.905c1.104 0 1.656-.669 1.656-2.005V5.639c0-1.336-.552-2.005-1.656-2.005-1.104 0-1.656.669-1.656 2.005v11.098c0 1.336.552 2.005 1.656 2.005ZM75.545 1.02h3.195v20.336h-3.195V1.02Zm5.589 0h4.706c1.588 0 2.78.426 3.574 1.278.794.852 1.191 2.101 1.191 3.748V8.05c0 1.647-.397 2.896-1.191 3.748-.795.852-1.986 1.278-3.574 1.278h-1.51v8.28h-3.196V1.02Zm4.706 9.151c.523 0 .91-.145 1.163-.436.27-.29.406-.784.406-1.481V5.842c0-.697-.135-1.19-.406-1.481-.252-.29-.64-.436-1.163-.436h-1.51v6.246h1.51Zm10.768 11.476c-1.549 0-2.72-.436-3.515-1.308-.794-.89-1.191-2.16-1.191-3.805v-1.162h3.022v1.394c0 1.317.551 1.976 1.655 1.976.543 0 .95-.155 1.22-.465.29-.33.436-.853.436-1.57 0-.851-.193-1.597-.58-2.236-.388-.659-1.104-1.443-2.15-2.353-1.317-1.162-2.237-2.208-2.76-3.138-.523-.949-.785-2.014-.785-3.196 0-1.607.407-2.847 1.22-3.718.814-.891 1.995-1.337 3.545-1.337 1.53 0 2.683.446 3.457 1.337.794.871 1.191 2.13 1.191 3.776v.843h-3.022V5.639c0-.697-.135-1.2-.406-1.51-.271-.33-.668-.495-1.191-.495-1.066 0-1.598.65-1.598 1.947 0 .736.194 1.423.581 2.063.407.639 1.133 1.413 2.18 2.324 1.335 1.162 2.255 2.217 2.759 3.166.503.95.755 2.063.755 3.341 0 1.666-.416 2.944-1.249 3.835-.814.891-2.005 1.337-3.574 1.337Zm11.304-.001c-1.55 0-2.731-.435-3.545-1.307-.814-.89-1.22-2.16-1.22-3.806V1.02h3.196v15.746c0 .697.135 1.2.406 1.51.291.31.698.465 1.22.465.524 0 .92-.155 1.192-.465.29-.31.436-.813.436-1.51V1.02h3.079v15.513c0 1.647-.407 2.915-1.22 3.806-.814.872-1.995 1.308-3.544 1.308Zm7.04-20.626h4.562l2.034 14.555h.057L123.64 1.02h4.56v20.336h-3.021V5.958h-.058l-2.325 15.398h-2.672L117.8 5.958h-.058v15.398h-2.79V1.02ZM.2 21.356A7.119 7.119 0 0 0 .2 7.12v4.983a2.136 2.136 0 1 1 0 4.271v4.983Z"/><path d="M23.93 9.492a12.748 12.748 0 0 0-3.857-.594c-7.044 0-12.754 5.71-12.754 12.755 0 .707.057 1.4.168 2.076h7.925a5.102 5.102 0 0 1 8.518-5.417v-8.82ZM1.452 0c.59 5.339 5.116 9.492 10.613 9.492 5.496 0 10.022-4.153 10.612-9.492h-7.636a3.204 3.204 0 0 1-5.953 0H1.452Z"/></g><defs><clipPath id="a"><path fill="#fff" d="M.2 0h128v24H.2z"/></clipPath></defs></svg>