<svg xmlns="http://www.w3.org/2000/svg" width="105" height="24" fill="none"><path fill="#4D4D4D" d="M25.762 6.45h3.557l-1.993 9.45c-.365 1.79-1.063 2.815-2.122 3.54a6.32 6.32 0 0 1-3.534.845c-2.353 0-4.61-.985-4.835-3.377h3.58c.112.563.63.884 1.418.884 1.064 0 1.553-.642 1.773-1.65l.214-1.04h-.079a3.444 3.444 0 0 1-2.47 1.125c-2.072 0-3.716-1.65-3.682-4.064.045-2.814 1.88-6.011 4.959-6.011a3.062 3.062 0 0 1 2.893 1.587h.062l.259-1.289Zm-3.057 7.137c1.368 0 2.128-1.576 2.15-2.932 0-.906-.354-1.835-1.401-1.835-1.43 0-2.156 1.593-2.178 2.96 0 .924.354 1.807 1.401 1.807m39.963.304c0 .602-.518.845-1.2.845-1.125 0-1.502-.563-1.508-1.351h-3.54c-.062 2.938 2.561 3.664 4.891 3.664 2.978 0 4.908-1.29 4.948-3.861 0-2.055-1.75-2.68-3.473-3.08-1.323-.303-1.902-.523-1.897-1.024.006-.5.597-.703 1.177-.703.726 0 1.22.259 1.272.923h3.439c-.04-2.454-2.252-3.175-4.503-3.175-2.736 0-4.869 1.244-4.903 3.597 0 1.852 1.25 2.533 3.135 3.017 1.21.32 2.173.422 2.162 1.148Zm26.302-5.915h-.062a2.521 2.521 0 0 0-2.567-1.847c-1.53 0-2.465.76-3.349 1.909h-.061l.326-1.588h-3.58l-2.145 10.255h3.744l1.125-5.532c.259-1.205.873-2.05 1.802-2.05.928 0 1.052.744.86 1.65l-1.238 5.932h3.743l1.126-5.532c.259-1.284.873-2.05 1.8-2.05.93 0 1.054.704.862 1.65l-1.238 5.932h3.743l1.34-6.095c.562-2.572-.299-4.503-2.77-4.503a4.11 4.11 0 0 0-3.461 1.869ZM.687 16.706h3.866l2.99-14.381H3.68L.687 16.705Zm11.64-10.56c2.611 0 5.104 1.43 5.065 4.666-.034 3.54-2.443 6.192-6.124 6.192-2.533 0-5.065-1.407-5.02-4.627.062-3.456 2.437-6.23 6.078-6.23Zm-.952 8.347c1.65 0 2.252-2.392 2.252-3.799 0-1.007-.31-1.992-1.396-1.992-1.633 0-2.19 2.533-2.19 3.838 0 1.047.293 1.953 1.357 1.953M8.83 2.325 8.268 5.2H40.74l.563-2.876H8.832Zm26.116 3.821c2.612 0 5.105 1.43 5.066 4.666-.034 3.54-2.448 6.192-6.13 6.192-2.532 0-5.065-1.407-5.014-4.627.078-3.456 2.454-6.23 6.078-6.23Zm-.934 8.347c1.65 0 2.252-2.392 2.252-3.799 0-1.007-.316-1.992-1.402-1.992-1.627 0-2.19 2.533-2.19 3.838 0 1.047.293 1.953 1.363 1.953M42.63 2.325 42.067 5.2h3.738l.563-2.876H42.63Zm-2.994 14.38h3.743L45.523 6.45h-3.765l-2.122 10.255Zm11.944.344a3.214 3.214 0 0 1-2.995-1.57h-.062l-1.125 5.189H43.61L46.65 6.45h3.556l-.281 1.368a4.15 4.15 0 0 1 3.203-1.689c2.25 0 3.574 1.931 3.534 4.441-.05 3.158-1.688 6.479-5.105 6.479h.023Zm-.147-8.015c-1.446 0-2.336 1.852-2.358 3.276 0 .99.349 2.093 1.537 2.093 1.547 0 2.183-2.048 2.2-3.416 0-.929-.27-1.953-1.379-1.953Zm21.642 6.056h.062l-.326 1.627h3.556l2.145-10.255h-3.737l-1.193 5.73c-.242 1.187-.974 1.812-1.897 1.812s-1.126-.867-.94-1.773l1.21-5.77h-3.737l-1.323 6.333c-.563 2.758.72 4.244 2.87 4.244a3.838 3.838 0 0 0 3.31-1.96v.012Zm20.077 5.629.563-2.877H49.328l-.563 2.877h44.387Z"/><path fill="#4D4D4D" d="M97.176 9.265a.28.28 0 0 1-.246-.195.282.282 0 0 1-.013-.11 3.577 3.577 0 0 0-2.163-3.623 3.576 3.576 0 0 0-1.467-.283.28.28 0 0 1 0-.562c.135.008.27.008.405 0a4.322 4.322 0 0 0 3.85-3.94.283.283 0 0 1 .281-.26.28.28 0 0 1 .26.305 3.58 3.58 0 0 0 .938 2.763 3.58 3.58 0 0 0 2.686 1.143.281.281 0 1 1 0 .563 4.34 4.34 0 0 0-4.249 3.94.283.283 0 0 1-.282.259Z"/></svg>