<svg xmlns="http://www.w3.org/2000/svg" width="106" height="24" fill="none"><g fill="#4D4D4D" clip-path="url(#a)"><path fill-rule="evenodd" d="M9 16.8a3 3 0 0 1-3-3V0H0v13.8a9 9 0 0 0 9 9h6.6v-6H9ZM27 6a5.4 5.4 0 1 0 0 10.8A5.4 5.4 0 0 0 27 6Zm-11.4 5.4C15.6 5.104 20.704 0 27 0s11.4 5.104 11.4 11.4S33.296 22.8 27 22.8s-11.4-5.104-11.4-11.4ZM91.8 6a5.4 5.4 0 1 0 0 10.8 5.4 5.4 0 0 0 0-10.8Zm-11.4 5.4C80.4 5.104 85.504 0 91.8 0s11.4 5.104 11.4 11.4-5.104 11.4-11.4 11.4-11.4-5.104-11.4-11.4ZM51 0c-6.296 0-11.4 5.104-11.4 11.4S44.704 22.8 51 22.8h16.8c1.181 0 2.32-.18 3.392-.514L74.4 24l3.46-6.482a11.405 11.405 0 0 0 1.34-5.361V11.4C79.2 5.104 74.096 0 67.8 0H51Zm22.2 11.4A5.4 5.4 0 0 0 67.8 6H51a5.4 5.4 0 0 0 0 10.8h16.8a5.4 5.4 0 0 0 5.4-5.358V11.4Z" clip-rule="evenodd"/><path d="M105.6 1.5a1.501 1.501 0 1 1-3.002 0 1.501 1.501 0 0 1 3.002 0Z"/></g><defs><clipPath id="a"><path fill="#fff" d="M0 0h105.6v24H0z"/></clipPath></defs></svg>